<svg width="127" height="126" viewBox="0 0 127 126" fill="none" xmlns="http://www.w3.org/2000/svg">
<rect width="125.5" height="125.5" transform="translate(0.987793)" fill="#201B2A"/>
<path fill-rule="evenodd" clip-rule="evenodd" d="M0.987793 31.375C11.4461 20.9167 32.3628 0 63.7378 0C95.1128 0 116.029 20.9167 126.488 31.375C116.029 41.8333 95.1128 62.75 63.7378 62.75C32.3628 62.75 11.4461 41.8333 0.987793 31.375ZM79.4253 31.375C79.4253 40.039 72.4018 47.0625 63.7378 47.0625C55.0738 47.0625 48.0503 40.039 48.0503 31.375C48.0503 22.711 55.0738 15.6875 63.7378 15.6875C72.4018 15.6875 79.4253 22.711 79.4253 31.375Z" fill="#52A159"/>
<path fill-rule="evenodd" clip-rule="evenodd" d="M0.987793 94.125C11.4461 83.6667 32.3628 62.75 63.7378 62.75C95.1128 62.75 116.029 83.6667 126.488 94.125C116.029 104.583 95.1128 125.5 63.7378 125.5C32.3628 125.5 11.4461 104.583 0.987793 94.125ZM79.4253 94.125C79.4253 102.789 72.4018 109.812 63.7378 109.812C55.0738 109.812 48.0503 102.789 48.0503 94.125C48.0503 85.461 55.0738 78.4375 63.7378 78.4375C72.4018 78.4375 79.4253 85.461 79.4253 94.125Z" fill="#52A159"/>
</svg>
