<svg xmlns="http://www.w3.org/2000/svg" fill="none" viewBox="0 0 24 25">
  <path stroke="#fff" stroke-linecap="round" stroke-linejoin="round" stroke-width="2" d="M11.75 5.5a7.7 7.7 0 0 0-2 .24c-2.913.73-5.723 3.006-7.619 5.324a1.78 1.78 0 0 0 0 2.198c1.867 2.28 4.67 4.596 7.622 5.333a7.7 7.7 0 0 0 1.997.238 7.7 7.7 0 0 0 2-.238c2.952-.735 5.758-3.052 7.62-5.333a1.78 1.78 0 0 0 0-2.198c-1.896-2.319-4.71-4.595-7.62-5.325a7.7 7.7 0 0 0-2-.24"/>
  <circle cx="11.751" cy="11.916" r="1.943" stroke="#fff" stroke-linecap="round" stroke-linejoin="round" stroke-width="2"/>
</svg>
